<svg data-v-1084b650="" xmlns="http://www.w3.org/2000/svg" viewBox="0 0 300 300"><!----> <!----> <rect data-v-1084b650="" fill="#ffffff" x="0" y="0" width="300px" height="300px" class="logo-background-square"></rect> <linearGradient data-v-1084b650="" gradientTransform="rotate(25)" id="06a3f49c-7d14-f9ef-4136-37a4df53f804" x1="0%" y1="0%" x2="100%" y2="0%"><stop data-v-1084b650="" offset="0%" style="stop-color: rgb(13, 37, 69); stop-opacity: 1;"></stop> <stop data-v-1084b650="" offset="100%" style="stop-color: rgb(162, 31, 68); stop-opacity: 1;"></stop></linearGradient> <g data-v-1084b650="" id="97795dde-830a-538a-feb9-e2323ec79034" fill="url(#06a3f49c-7d14-f9ef-4136-37a4df53f804)" transform="matrix(1.9000000000000001,0,0,1.9000000000000001,36.20899842381476,133.14700498580933)"><path d="M0.95 14L0.95 14Q0.84 14 0.77 13.93L0.77 13.93L0.77 13.93Q0.70 13.86 0.70 13.75L0.70 13.75L0.70 4.45L0.70 4.45Q0.70 4.34 0.77 4.27L0.77 4.27L0.77 4.27Q0.84 4.20 0.95 4.20L0.95 4.20L2.76 4.20L2.76 4.20Q2.95 4.20 3.05 4.37L3.05 4.37L4.91 7.38L4.91 7.38Q4.98 7.48 5.05 7.38L5.05 7.38L6.93 4.37L6.93 4.37Q7.03 4.20 7.22 4.20L7.22 4.20L9.03 4.20L9.03 4.20Q9.14 4.20 9.21 4.27L9.21 4.27L9.21 4.27Q9.28 4.34 9.28 4.45L9.28 4.45L9.28 13.75L9.28 13.75Q9.28 13.86 9.21 13.93L9.21 13.93L9.21 13.93Q9.14 14 9.03 14L9.03 14L7.21 14L7.21 14Q7.10 14 7.03 13.93L7.03 13.93L7.03 13.93Q6.96 13.86 6.96 13.75L6.96 13.75L6.96 8.27L6.96 8.27Q6.96 8.20 6.92 8.19L6.92 8.19L6.92 8.19Q6.87 8.18 6.85 8.25L6.85 8.25L5.71 10.09L5.71 10.09Q5.61 10.26 5.42 10.26L5.42 10.26L4.56 10.26L4.56 10.26Q4.37 10.26 4.27 10.09L4.27 10.09L3.14 8.25L3.14 8.25Q3.11 8.18 3.07 8.19L3.07 8.19L3.07 8.19Q3.02 8.20 3.02 8.27L3.02 8.27L3.02 13.75L3.02 13.75Q3.02 13.86 2.95 13.93L2.95 13.93L2.95 13.93Q2.88 14 2.77 14L2.77 14L0.95 14ZM13.61 6.65L13.61 6.65Q14.53 6.65 15.29 6.96L15.29 6.96L15.29 6.96Q16.04 7.28 16.48 7.83L16.48 7.83L16.48 7.83Q16.91 8.39 16.91 9.06L16.91 9.06L16.91 13.75L16.91 13.75Q16.91 13.86 16.84 13.93L16.84 13.93L16.84 13.93Q16.77 14 16.66 14L16.66 14L14.84 14L14.84 14Q14.73 14 14.66 13.93L14.66 13.93L14.66 13.93Q14.59 13.86 14.59 13.75L14.59 13.75L14.59 13.47L14.59 13.47Q14.59 13.40 14.55 13.38L14.55 13.38L14.55 13.38Q14.52 13.37 14.48 13.43L14.48 13.43L14.48 13.43Q13.92 14.11 12.67 14.11L12.67 14.11L12.67 14.11Q11.56 14.11 10.91 13.59L10.91 13.59L10.91 13.59Q10.25 13.06 10.25 12.04L10.25 12.04L10.25 12.04Q10.25 10.96 11.00 10.37L11.00 10.37L11.00 10.37Q11.75 9.79 13.16 9.79L13.16 9.79L14.49 9.79L14.49 9.79Q14.59 9.79 14.59 9.69L14.59 9.69L14.59 9.45L14.59 9.45Q14.59 9.07 14.34 8.86L14.34 8.86L14.34 8.86Q14.10 8.64 13.65 8.64L13.65 8.64L13.65 8.64Q13.33 8.64 13.10 8.74L13.10 8.74L13.10 8.74Q12.87 8.85 12.77 9.03L12.77 9.03L12.77 9.03Q12.70 9.13 12.64 9.18L12.64 9.18L12.64 9.18Q12.57 9.23 12.47 9.21L12.47 9.21L10.60 8.97L10.60 8.97Q10.35 8.95 10.37 8.78L10.37 8.78L10.37 8.78Q10.44 8.18 10.88 7.69L10.88 7.69L10.88 7.69Q11.31 7.21 12.02 6.93L12.02 6.93L12.02 6.93Q12.73 6.65 13.61 6.65L13.61 6.65ZM13.37 12.45L13.37 12.45Q13.90 12.45 14.25 12.17L14.25 12.17L14.25 12.17Q14.59 11.90 14.59 11.45L14.59 11.45L14.59 11.14L14.59 11.14Q14.59 11.05 14.49 11.05L14.49 11.05L13.68 11.05L13.68 11.05Q13.15 11.05 12.86 11.23L12.86 11.23L12.86 11.23Q12.57 11.41 12.57 11.77L12.57 11.77L12.57 11.77Q12.57 12.08 12.78 12.26L12.78 12.26L12.78 12.26Q12.99 12.45 13.37 12.45L13.37 12.45ZM21.91 6.66L21.91 6.66Q22.36 6.66 22.64 6.82L22.64 6.82L22.64 6.82Q22.82 6.92 22.78 7.13L22.78 7.13L22.47 8.92L22.47 8.92Q22.46 9.10 22.29 9.10L22.29 9.10L22.29 9.10Q22.22 9.10 22.18 9.09L22.18 9.09L22.18 9.09Q22.01 9.04 21.76 9.04L21.76 9.04L21.76 9.04Q21.53 9.04 21.42 9.07L21.42 9.07L21.42 9.07Q20.99 9.13 20.69 9.41L20.69 9.41L20.69 9.41Q20.38 9.69 20.38 10.15L20.38 10.15L20.38 13.75L20.38 13.75Q20.38 13.86 20.31 13.93L20.31 13.93L20.31 13.93Q20.24 14 20.13 14L20.13 14L18.31 14L18.31 14Q18.20 14 18.13 13.93L18.13 13.93L18.13 13.93Q18.06 13.86 18.06 13.75L18.06 13.75L18.06 7.01L18.06 7.01Q18.06 6.90 18.13 6.83L18.13 6.83L18.13 6.83Q18.20 6.76 18.31 6.76L18.31 6.76L20.13 6.76L20.13 6.76Q20.24 6.76 20.31 6.83L20.31 6.83L20.31 6.83Q20.38 6.90 20.38 7.01L20.38 7.01L20.38 7.32L20.38 7.32Q20.38 7.39 20.42 7.41L20.42 7.41L20.42 7.41Q20.45 7.42 20.48 7.36L20.48 7.36L20.48 7.36Q21.04 6.66 21.91 6.66L21.91 6.66ZM24.79 6.29L24.79 6.29Q24.18 6.29 23.80 5.91L23.80 5.91L23.80 5.91Q23.42 5.54 23.42 4.94L23.42 4.94L23.42 4.94Q23.42 4.35 23.80 3.99L23.80 3.99L23.80 3.99Q24.18 3.63 24.79 3.63L24.79 3.63L24.79 3.63Q25.41 3.63 25.79 3.99L25.79 3.99L25.79 3.99Q26.17 4.35 26.17 4.94L26.17 4.94L26.17 4.94Q26.17 5.54 25.79 5.91L25.79 5.91L25.79 5.91Q25.41 6.29 24.79 6.29L24.79 6.29ZM23.88 14L23.88 14Q23.77 14 23.70 13.93L23.70 13.93L23.70 13.93Q23.63 13.86 23.63 13.75L23.63 13.75L23.63 7.01L23.63 7.01Q23.63 6.90 23.70 6.83L23.70 6.83L23.70 6.83Q23.77 6.76 23.88 6.76L23.88 6.76L25.70 6.76L25.70 6.76Q25.82 6.76 25.89 6.83L25.89 6.83L25.89 6.83Q25.96 6.90 25.96 7.01L25.96 7.01L25.96 13.75L25.96 13.75Q25.96 13.86 25.89 13.93L25.89 13.93L25.89 13.93Q25.82 14 25.70 14L25.70 14L23.88 14ZM30.27 6.65L30.27 6.65Q31.19 6.65 31.95 6.96L31.95 6.96L31.95 6.96Q32.70 7.28 33.14 7.83L33.14 7.83L33.14 7.83Q33.57 8.39 33.57 9.06L33.57 9.06L33.57 13.75L33.57 13.75Q33.57 13.86 33.50 13.93L33.50 13.93L33.50 13.93Q33.43 14 33.32 14L33.32 14L31.50 14L31.50 14Q31.39 14 31.32 13.93L31.32 13.93L31.32 13.93Q31.25 13.86 31.25 13.75L31.25 13.75L31.25 13.47L31.25 13.47Q31.25 13.40 31.21 13.38L31.21 13.38L31.21 13.38Q31.18 13.37 31.14 13.43L31.14 13.43L31.14 13.43Q30.58 14.11 29.33 14.11L29.33 14.11L29.33 14.11Q28.22 14.11 27.57 13.59L27.57 13.59L27.57 13.59Q26.91 13.06 26.91 12.04L26.91 12.04L26.91 12.04Q26.91 10.96 27.66 10.37L27.66 10.37L27.66 10.37Q28.41 9.79 29.82 9.79L29.82 9.79L31.15 9.79L31.15 9.79Q31.25 9.79 31.25 9.69L31.25 9.69L31.25 9.45L31.25 9.45Q31.25 9.07 31.00 8.86L31.00 8.86L31.00 8.86Q30.76 8.64 30.31 8.64L30.31 8.64L30.31 8.64Q29.99 8.64 29.76 8.74L29.76 8.74L29.76 8.74Q29.53 8.85 29.43 9.03L29.43 9.03L29.43 9.03Q29.36 9.13 29.30 9.18L29.30 9.18L29.30 9.18Q29.23 9.23 29.13 9.21L29.13 9.21L27.26 8.97L27.26 8.97Q27.01 8.95 27.03 8.78L27.03 8.78L27.03 8.78Q27.10 8.18 27.54 7.69L27.54 7.69L27.54 7.69Q27.97 7.21 28.68 6.93L28.68 6.93L28.68 6.93Q29.39 6.65 30.27 6.65L30.27 6.65ZM30.03 12.45L30.03 12.45Q30.56 12.45 30.91 12.17L30.91 12.17L30.91 12.17Q31.25 11.90 31.25 11.45L31.25 11.45L31.25 11.14L31.25 11.14Q31.25 11.05 31.15 11.05L31.15 11.05L30.34 11.05L30.34 11.05Q29.81 11.05 29.52 11.23L29.52 11.23L29.52 11.23Q29.23 11.41 29.23 11.77L29.23 11.77L29.23 11.77Q29.23 12.08 29.44 12.26L29.44 12.26L29.44 12.26Q29.65 12.45 30.03 12.45L30.03 12.45ZM44.62 4.20L44.62 4.20Q44.73 4.20 44.80 4.27L44.80 4.27L44.80 4.27Q44.87 4.34 44.87 4.45L44.87 4.45L44.87 5.95L44.87 5.95Q44.87 6.06 44.80 6.13L44.80 6.13L44.80 6.13Q44.73 6.20 44.62 6.20L44.62 6.20L42.28 6.20L42.28 6.20Q42.18 6.20 42.18 6.30L42.18 6.30L42.18 13.75L42.18 13.75Q42.18 13.86 42.11 13.93L42.11 13.93L42.11 13.93Q42.04 14 41.93 14L41.93 14L40.11 14L40.11 14Q40.00 14 39.93 13.93L39.93 13.93L39.93 13.93Q39.86 13.86 39.86 13.75L39.86 13.75L39.86 6.30L39.86 6.30Q39.86 6.20 39.76 6.20L39.76 6.20L37.51 6.20L37.51 6.20Q37.39 6.20 37.32 6.13L37.32 6.13L37.32 6.13Q37.25 6.06 37.25 5.95L37.25 5.95L37.25 4.45L37.25 4.45Q37.25 4.34 37.32 4.27L37.32 4.27L37.32 4.27Q37.39 4.20 37.51 4.20L37.51 4.20L44.62 4.20ZM49.42 12.14L49.42 12.14Q49.85 12.14 50.23 12.00L50.23 12.00L50.23 12.00Q50.60 11.87 50.85 11.65L50.85 11.65L50.85 11.65Q50.93 11.55 51.03 11.55L51.03 11.55L51.03 11.55Q51.11 11.55 51.20 11.65L51.20 11.65L52.07 12.68L52.07 12.68Q52.15 12.78 52.15 12.87L52.15 12.87L52.15 12.87Q52.15 12.96 52.07 13.05L52.07 13.05L52.07 13.05Q51.59 13.55 50.86 13.83L50.86 13.83L50.86 13.83Q50.13 14.11 49.31 14.11L49.31 14.11L49.31 14.11Q48.36 14.11 47.62 13.77L47.62 13.77L47.62 13.77Q46.89 13.43 46.41 12.81L46.41 12.81L46.41 12.81Q45.64 11.83 45.64 10.32L45.64 10.32L45.64 10.32Q45.64 9.65 45.79 9.06L45.79 9.06L45.79 9.06Q46.10 7.97 47.00 7.30L47.00 7.30L47.00 7.30Q47.89 6.64 49.10 6.64L49.10 6.64L49.10 6.64Q50.50 6.64 51.36 7.50L51.36 7.50L51.36 7.50Q52.22 8.37 52.49 9.93L52.49 9.93L52.49 9.93Q52.54 10.32 52.57 10.78L52.57 10.78L52.57 10.78Q52.57 11.03 52.32 11.03L52.32 11.03L48.09 11.03L48.09 11.03Q48.05 11.03 48.01 11.06L48.01 11.06L48.01 11.06Q47.98 11.09 47.99 11.14L47.99 11.14L48.08 11.42L48.08 11.42Q48.22 11.76 48.57 11.95L48.57 11.95L48.57 11.95Q48.92 12.14 49.42 12.14L49.42 12.14ZM49.06 8.64L49.06 8.64Q48.34 8.64 48.09 9.32L48.09 9.32L48.09 9.32Q48.03 9.46 48.02 9.53L48.02 9.53L48.02 9.56L48.02 9.56Q48.02 9.65 48.12 9.65L48.12 9.65L50.04 9.65L50.04 9.65Q50.09 9.65 50.11 9.61L50.11 9.61L50.11 9.61Q50.13 9.58 50.12 9.53L50.12 9.53L50.06 9.35L50.06 9.35Q49.95 9.02 49.70 8.83L49.70 8.83L49.70 8.83Q49.45 8.64 49.06 8.64L49.06 8.64ZM57.36 6.66L57.36 6.66Q57.81 6.66 58.09 6.82L58.09 6.82L58.09 6.82Q58.27 6.92 58.23 7.13L58.23 7.13L57.92 8.92L57.92 8.92Q57.90 9.10 57.74 9.10L57.74 9.10L57.74 9.10Q57.67 9.10 57.62 9.09L57.62 9.09L57.62 9.09Q57.46 9.04 57.20 9.04L57.20 9.04L57.20 9.04Q56.98 9.04 56.87 9.07L56.87 9.07L56.87 9.07Q56.43 9.13 56.13 9.41L56.13 9.41L56.13 9.41Q55.83 9.69 55.83 10.15L55.83 10.15L55.83 13.75L55.83 13.75Q55.83 13.86 55.76 13.93L55.76 13.93L55.76 13.93Q55.69 14 55.58 14L55.58 14L53.76 14L53.76 14Q53.65 14 53.58 13.93L53.58 13.93L53.58 13.93Q53.51 13.86 53.51 13.75L53.51 13.75L53.51 7.01L53.51 7.01Q53.51 6.90 53.58 6.83L53.58 6.83L53.58 6.83Q53.65 6.76 53.76 6.76L53.76 6.76L55.58 6.76L55.58 6.76Q55.69 6.76 55.76 6.83L55.76 6.83L55.76 6.83Q55.83 6.90 55.83 7.01L55.83 7.01L55.83 7.32L55.83 7.32Q55.83 7.39 55.87 7.41L55.87 7.41L55.87 7.41Q55.90 7.42 55.93 7.36L55.93 7.36L55.93 7.36Q56.49 6.66 57.36 6.66L57.36 6.66ZM62.61 12.14L62.61 12.14Q63.04 12.14 63.41 12.00L63.41 12.00L63.41 12.00Q63.78 11.87 64.04 11.65L64.04 11.65L64.04 11.65Q64.12 11.55 64.22 11.55L64.22 11.55L64.22 11.55Q64.30 11.55 64.39 11.65L64.39 11.65L65.25 12.68L65.25 12.68Q65.34 12.78 65.34 12.87L65.34 12.87L65.34 12.87Q65.34 12.96 65.25 13.05L65.25 13.05L65.25 13.05Q64.78 13.55 64.05 13.83L64.05 13.83L64.05 13.83Q63.32 14.11 62.50 14.11L62.50 14.11L62.50 14.11Q61.54 14.11 60.81 13.77L60.81 13.77L60.81 13.77Q60.07 13.43 59.60 12.81L59.60 12.81L59.60 12.81Q58.83 11.83 58.83 10.32L58.83 10.32L58.83 10.32Q58.83 9.65 58.98 9.06L58.98 9.06L58.98 9.06Q59.29 7.97 60.19 7.30L60.19 7.30L60.19 7.30Q61.08 6.64 62.29 6.64L62.29 6.64L62.29 6.64Q63.69 6.64 64.55 7.50L64.55 7.50L64.55 7.50Q65.41 8.37 65.67 9.93L65.67 9.93L65.67 9.93Q65.73 10.32 65.76 10.78L65.76 10.78L65.76 10.78Q65.76 11.03 65.51 11.03L65.51 11.03L61.28 11.03L61.28 11.03Q61.24 11.03 61.20 11.06L61.20 11.06L61.20 11.06Q61.17 11.09 61.18 11.14L61.18 11.14L61.26 11.42L61.26 11.42Q61.40 11.76 61.75 11.95L61.75 11.95L61.75 11.95Q62.10 12.14 62.61 12.14L62.61 12.14ZM62.24 8.64L62.24 8.64Q61.53 8.64 61.28 9.32L61.28 9.32L61.28 9.32Q61.22 9.46 61.21 9.53L61.21 9.53L61.21 9.56L61.21 9.56Q61.21 9.65 61.31 9.65L61.31 9.65L63.22 9.65L63.22 9.65Q63.28 9.65 63.30 9.61L63.30 9.61L63.30 9.61Q63.32 9.58 63.31 9.53L63.31 9.53L63.25 9.35L63.25 9.35Q63.14 9.02 62.89 8.83L62.89 8.83L62.89 8.83Q62.64 8.64 62.24 8.64L62.24 8.64ZM69.78 14.11L69.78 14.11Q68.78 14.11 68.05 13.84L68.05 13.84L68.05 13.84Q67.31 13.57 66.91 13.07L66.91 13.07L66.91 13.07Q66.51 12.57 66.51 11.93L66.51 11.93L66.51 11.86L66.51 11.86Q66.51 11.75 66.58 11.68L66.58 11.68L66.58 11.68Q66.65 11.61 66.77 11.61L66.77 11.61L68.49 11.61L68.49 11.61Q68.74 11.61 68.74 11.69L68.74 11.69L68.74 11.77L68.74 11.77Q68.74 12.04 69.03 12.21L69.03 12.21L69.03 12.21Q69.31 12.39 69.76 12.39L69.76 12.39L69.76 12.39Q70.15 12.39 70.39 12.26L70.39 12.26L70.39 12.26Q70.63 12.12 70.63 11.90L70.63 11.90L70.63 11.90Q70.63 11.68 70.38 11.57L70.38 11.57L70.38 11.57Q70.13 11.47 69.58 11.37L69.58 11.37L69.58 11.37Q68.70 11.20 68.15 10.96L68.15 10.96L68.15 10.96Q67.45 10.67 67.03 10.22L67.03 10.22L67.03 10.22Q66.60 9.77 66.60 9.02L66.60 9.02L66.60 9.02Q66.60 7.92 67.45 7.29L67.45 7.29L67.45 7.29Q68.29 6.65 69.68 6.65L69.68 6.65L69.68 6.65Q70.62 6.65 71.32 6.95L71.32 6.95L71.32 6.95Q72.03 7.25 72.42 7.80L72.42 7.80L72.42 7.80Q72.81 8.34 72.81 9.06L72.81 9.06L72.81 9.06Q72.81 9.13 72.74 9.18L72.74 9.18L72.74 9.18Q72.67 9.23 72.56 9.23L72.56 9.23L70.90 9.23L70.90 9.23Q70.64 9.23 70.64 9.14L70.64 9.14L70.64 9.06L70.64 9.06Q70.64 8.79 70.39 8.62L70.39 8.62L70.39 8.62Q70.14 8.46 69.71 8.46L69.71 8.46L69.71 8.46Q69.31 8.46 69.07 8.59L69.07 8.59L69.07 8.59Q68.82 8.72 68.82 8.96L68.82 8.96L68.82 8.96Q68.82 9.20 69.09 9.30L69.09 9.30L69.09 9.30Q69.36 9.41 69.99 9.53L69.99 9.53L69.99 9.53Q70.84 9.70 71.13 9.80L71.13 9.80L71.13 9.80Q71.99 10.08 72.47 10.56L72.47 10.56L72.47 10.56Q72.95 11.03 72.95 11.83L72.95 11.83L72.95 11.83Q72.95 12.92 72.09 13.52L72.09 13.52L72.09 13.52Q71.23 14.11 69.78 14.11L69.78 14.11ZM76.89 6.65L76.89 6.65Q77.81 6.65 78.57 6.96L78.57 6.96L78.57 6.96Q79.32 7.28 79.76 7.83L79.76 7.83L79.76 7.83Q80.19 8.39 80.19 9.06L80.19 9.06L80.19 13.75L80.19 13.75Q80.19 13.86 80.12 13.93L80.12 13.93L80.12 13.93Q80.05 14 79.94 14L79.94 14L78.12 14L78.12 14Q78.01 14 77.94 13.93L77.94 13.93L77.94 13.93Q77.87 13.86 77.87 13.75L77.87 13.75L77.87 13.47L77.87 13.47Q77.87 13.40 77.83 13.38L77.83 13.38L77.83 13.38Q77.80 13.37 77.76 13.43L77.76 13.43L77.76 13.43Q77.20 14.11 75.95 14.11L75.95 14.11L75.95 14.11Q74.84 14.11 74.19 13.59L74.19 13.59L74.19 13.59Q73.53 13.06 73.53 12.04L73.53 12.04L73.53 12.04Q73.53 10.96 74.28 10.37L74.28 10.37L74.28 10.37Q75.03 9.79 76.44 9.79L76.44 9.79L77.77 9.79L77.77 9.79Q77.87 9.79 77.87 9.69L77.87 9.69L77.87 9.45L77.87 9.45Q77.87 9.07 77.62 8.86L77.62 8.86L77.62 8.86Q77.38 8.64 76.93 8.64L76.93 8.64L76.93 8.64Q76.61 8.64 76.38 8.74L76.38 8.74L76.38 8.74Q76.15 8.85 76.05 9.03L76.05 9.03L76.05 9.03Q75.98 9.13 75.92 9.18L75.92 9.18L75.92 9.18Q75.85 9.23 75.75 9.21L75.75 9.21L73.88 8.97L73.88 8.97Q73.63 8.95 73.65 8.78L73.65 8.78L73.65 8.78Q73.72 8.18 74.16 7.69L74.16 7.69L74.16 7.69Q74.59 7.21 75.30 6.93L75.30 6.93L75.30 6.93Q76.01 6.65 76.89 6.65L76.89 6.65ZM76.65 12.45L76.65 12.45Q77.18 12.45 77.53 12.17L77.53 12.17L77.53 12.17Q77.87 11.90 77.87 11.45L77.87 11.45L77.87 11.14L77.87 11.14Q77.87 11.05 77.77 11.05L77.77 11.05L76.96 11.05L76.96 11.05Q76.43 11.05 76.14 11.23L76.14 11.23L76.14 11.23Q75.85 11.41 75.85 11.77L75.85 11.77L75.85 11.77Q75.85 12.08 76.06 12.26L76.06 12.26L76.06 12.26Q76.27 12.45 76.65 12.45L76.65 12.45ZM87.74 14.11L87.74 14.11Q86.62 14.11 85.77 13.74L85.77 13.74L85.77 13.74Q84.92 13.37 84.46 12.68L84.46 12.68L84.46 12.68Q84.00 11.98 84.00 11.07L84.00 11.07L84.00 10.89L84.00 10.89Q84.00 10.78 84.07 10.71L84.07 10.71L84.07 10.71Q84.14 10.64 84.25 10.64L84.25 10.64L86.03 10.64L86.03 10.64Q86.14 10.64 86.21 10.69L86.21 10.69L86.21 10.69Q86.28 10.74 86.28 10.81L86.28 10.81L86.28 10.98L86.28 10.98Q86.28 11.42 86.74 11.77L86.74 11.77L86.74 11.77Q87.19 12.12 87.91 12.12L87.91 12.12L87.91 12.12Q88.52 12.12 88.82 11.86L88.82 11.86L88.82 11.86Q89.11 11.59 89.11 11.24L89.11 11.24L89.11 11.24Q89.11 10.85 88.77 10.64L88.77 10.64L88.77 10.64Q88.42 10.43 87.54 10.15L87.54 10.15L87.23 10.05L87.23 10.05Q86.34 9.76 85.67 9.41L85.67 9.41L85.67 9.41Q84.99 9.07 84.52 8.46L84.52 8.46L84.52 8.46Q84.04 7.85 84.04 6.96L84.04 6.96L84.04 6.96Q84.04 6.09 84.50 5.44L84.50 5.44L84.50 5.44Q84.95 4.79 85.76 4.44L85.76 4.44L85.76 4.44Q86.56 4.09 87.58 4.09L87.58 4.09L87.58 4.09Q88.66 4.09 89.52 4.48L89.52 4.48L89.52 4.48Q90.38 4.87 90.87 5.59L90.87 5.59L90.87 5.59Q91.36 6.30 91.36 7.22L91.36 7.22L91.36 7.34L91.36 7.34Q91.36 7.45 91.29 7.52L91.29 7.52L91.29 7.52Q91.22 7.59 91.11 7.59L91.11 7.59L89.33 7.59L89.33 7.59Q89.22 7.59 89.15 7.55L89.15 7.55L89.15 7.55Q89.08 7.52 89.08 7.45L89.08 7.45L89.08 7.32L89.08 7.32Q89.08 6.83 88.65 6.45L88.65 6.45L88.65 6.45Q88.21 6.08 87.49 6.08L87.49 6.08L87.49 6.08Q86.94 6.08 86.63 6.30L86.63 6.30L86.63 6.30Q86.32 6.52 86.32 6.93L86.32 6.93L86.32 6.93Q86.32 7.24 86.52 7.44L86.52 7.44L86.52 7.44Q86.72 7.64 87.13 7.82L87.13 7.82L87.13 7.82Q87.54 7.99 88.40 8.27L88.40 8.27L88.40 8.27Q89.38 8.61 89.92 8.86L89.92 8.86L89.92 8.86Q90.47 9.11 90.95 9.68L90.95 9.68L90.95 9.68Q91.43 10.25 91.43 11.17L91.43 11.17L91.43 11.17Q91.43 12.05 90.97 12.72L90.97 12.72L90.97 12.72Q90.51 13.38 89.67 13.75L89.67 13.75L89.67 13.75Q88.83 14.11 87.74 14.11L87.74 14.11ZM96.94 8.37L96.94 8.37Q96.94 8.48 96.87 8.55L96.87 8.55L96.87 8.55Q96.80 8.62 96.68 8.62L96.68 8.62L95.52 8.62L95.52 8.62Q95.42 8.62 95.42 8.72L95.42 8.72L95.42 11.17L95.42 11.17Q95.42 11.97 96.07 11.97L96.07 11.97L96.50 11.97L96.50 11.97Q96.61 11.97 96.68 12.04L96.68 12.04L96.68 12.04Q96.75 12.11 96.75 12.22L96.75 12.22L96.75 13.69L96.75 13.69Q96.75 13.92 96.52 13.94L96.52 13.94L96.52 13.94Q95.87 13.97 95.61 13.97L95.61 13.97L95.61 13.97Q94.39 13.97 93.80 13.58L93.80 13.58L93.80 13.58Q93.21 13.19 93.20 12.12L93.20 12.12L93.20 8.72L93.20 8.72Q93.20 8.62 93.10 8.62L93.10 8.62L92.41 8.62L92.41 8.62Q92.30 8.62 92.23 8.55L92.23 8.55L92.23 8.55Q92.16 8.48 92.16 8.37L92.16 8.37L92.16 7.01L92.16 7.01Q92.16 6.90 92.23 6.83L92.23 6.83L92.23 6.83Q92.30 6.76 92.41 6.76L92.41 6.76L93.10 6.76L93.10 6.76Q93.20 6.76 93.20 6.66L93.20 6.66L93.20 5.08L93.20 5.08Q93.20 4.97 93.27 4.90L93.27 4.90L93.27 4.90Q93.34 4.83 93.45 4.83L93.45 4.83L95.17 4.83L95.17 4.83Q95.28 4.83 95.35 4.90L95.35 4.90L95.35 4.90Q95.42 4.97 95.42 5.08L95.42 5.08L95.42 6.66L95.42 6.66Q95.42 6.76 95.52 6.76L95.52 6.76L96.68 6.76L96.68 6.76Q96.80 6.76 96.87 6.83L96.87 6.83L96.87 6.83Q96.94 6.90 96.94 7.01L96.94 7.01L96.94 8.37ZM101.51 12.14L101.51 12.14Q101.95 12.14 102.32 12.00L102.32 12.00L102.32 12.00Q102.69 11.87 102.94 11.65L102.94 11.65L102.94 11.65Q103.03 11.55 103.12 11.55L103.12 11.55L103.12 11.55Q103.21 11.55 103.29 11.65L103.29 11.65L104.16 12.68L104.16 12.68Q104.24 12.78 104.24 12.87L104.24 12.87L104.24 12.87Q104.24 12.96 104.16 13.05L104.16 13.05L104.16 13.05Q103.68 13.55 102.96 13.83L102.96 13.83L102.96 13.83Q102.23 14.11 101.40 14.11L101.40 14.11L101.40 14.11Q100.45 14.11 99.71 13.77L99.71 13.77L99.71 13.77Q98.98 13.43 98.50 12.81L98.50 12.81L98.50 12.81Q97.73 11.83 97.73 10.32L97.73 10.32L97.73 10.32Q97.73 9.65 97.89 9.06L97.89 9.06L97.89 9.06Q98.20 7.97 99.09 7.30L99.09 7.30L99.09 7.30Q99.99 6.64 101.19 6.64L101.19 6.64L101.19 6.64Q102.59 6.64 103.45 7.50L103.45 7.50L103.45 7.50Q104.31 8.37 104.58 9.93L104.58 9.93L104.58 9.93Q104.64 10.32 104.66 10.78L104.66 10.78L104.66 10.78Q104.66 11.03 104.41 11.03L104.41 11.03L100.18 11.03L100.18 11.03Q100.14 11.03 100.11 11.06L100.11 11.06L100.11 11.06Q100.07 11.09 100.09 11.14L100.09 11.14L100.17 11.42L100.17 11.42Q100.31 11.76 100.66 11.95L100.66 11.95L100.66 11.95Q101.01 12.14 101.51 12.14L101.51 12.14ZM101.15 8.64L101.15 8.64Q100.44 8.64 100.18 9.32L100.18 9.32L100.18 9.32Q100.13 9.46 100.11 9.53L100.11 9.53L100.11 9.56L100.11 9.56Q100.11 9.65 100.21 9.65L100.21 9.65L102.13 9.65L102.13 9.65Q102.19 9.65 102.21 9.61L102.21 9.61L102.21 9.61Q102.23 9.58 102.21 9.53L102.21 9.53L102.16 9.35L102.16 9.35Q102.05 9.02 101.79 8.83L101.79 8.83L101.79 8.83Q101.54 8.64 101.15 8.64L101.15 8.64ZM105.88 14L105.88 14Q105.77 14 105.70 13.93L105.70 13.93L105.70 13.93Q105.63 13.86 105.63 13.75L105.63 13.75L105.63 4.45L105.63 4.45Q105.63 4.34 105.70 4.27L105.70 4.27L105.70 4.27Q105.77 4.20 105.88 4.20L105.88 4.20L107.70 4.20L107.70 4.20Q107.81 4.20 107.88 4.27L107.88 4.27L107.88 4.27Q107.95 4.34 107.95 4.45L107.95 4.45L107.95 13.75L107.95 13.75Q107.95 13.86 107.88 13.93L107.88 13.93L107.88 13.93Q107.81 14 107.70 14L107.70 14L105.88 14ZM109.45 14L109.45 14Q109.34 14 109.27 13.93L109.27 13.93L109.27 13.93Q109.20 13.86 109.20 13.75L109.20 13.75L109.20 4.45L109.20 4.45Q109.20 4.34 109.27 4.27L109.27 4.27L109.27 4.27Q109.34 4.20 109.45 4.20L109.45 4.20L111.27 4.20L111.27 4.20Q111.38 4.20 111.45 4.27L111.45 4.27L111.45 4.27Q111.52 4.34 111.52 4.45L111.52 4.45L111.52 13.75L111.52 13.75Q111.52 13.86 111.45 13.93L111.45 13.93L111.45 13.93Q111.38 14 111.27 14L111.27 14L109.45 14ZM115.78 6.65L115.78 6.65Q116.70 6.65 117.46 6.96L117.46 6.96L117.46 6.96Q118.22 7.28 118.65 7.83L118.65 7.83L118.65 7.83Q119.08 8.39 119.08 9.06L119.08 9.06L119.08 13.75L119.08 13.75Q119.08 13.86 119.01 13.93L119.01 13.93L119.01 13.93Q118.94 14 118.83 14L118.83 14L117.01 14L117.01 14Q116.90 14 116.83 13.93L116.83 13.93L116.83 13.93Q116.76 13.86 116.76 13.75L116.76 13.75L116.76 13.47L116.76 13.47Q116.76 13.40 116.72 13.38L116.72 13.38L116.72 13.38Q116.69 13.37 116.65 13.43L116.65 13.43L116.65 13.43Q116.09 14.11 114.84 14.11L114.84 14.11L114.84 14.11Q113.74 14.11 113.08 13.59L113.08 13.59L113.08 13.59Q112.42 13.06 112.42 12.04L112.42 12.04L112.42 12.04Q112.42 10.96 113.17 10.37L113.17 10.37L113.17 10.37Q113.92 9.79 115.33 9.79L115.33 9.79L116.66 9.79L116.66 9.79Q116.76 9.79 116.76 9.69L116.76 9.69L116.76 9.45L116.76 9.45Q116.76 9.07 116.51 8.86L116.51 8.86L116.51 8.86Q116.27 8.64 115.82 8.64L115.82 8.64L115.82 8.64Q115.50 8.64 115.27 8.74L115.27 8.74L115.27 8.74Q115.04 8.85 114.94 9.03L114.94 9.03L114.94 9.03Q114.87 9.13 114.81 9.18L114.81 9.18L114.81 9.18Q114.74 9.23 114.65 9.21L114.65 9.21L112.77 8.97L112.77 8.97Q112.52 8.95 112.55 8.78L112.55 8.78L112.55 8.78Q112.62 8.18 113.05 7.69L113.05 7.69L113.05 7.69Q113.48 7.21 114.19 6.93L114.19 6.93L114.19 6.93Q114.90 6.65 115.78 6.65L115.78 6.65ZM115.54 12.45L115.54 12.45Q116.07 12.45 116.42 12.17L116.42 12.17L116.42 12.17Q116.76 11.90 116.76 11.45L116.76 11.45L116.76 11.14L116.76 11.14Q116.76 11.05 116.66 11.05L116.66 11.05L115.85 11.05L115.85 11.05Q115.32 11.05 115.03 11.23L115.03 11.23L115.03 11.23Q114.74 11.41 114.74 11.77L114.74 11.77L114.74 11.77Q114.74 12.08 114.95 12.26L114.95 12.26L114.95 12.26Q115.16 12.45 115.54 12.45L115.54 12.45Z"></path></g> <!----></svg>